<?xml version="1.0" encoding="UTF-8" standalone="no"?>
<!-- Created with Inkscape (http://www.inkscape.org/) -->

<svg
   xmlns:dc="http://purl.org/dc/elements/1.1/"
   xmlns:cc="http://creativecommons.org/ns#"
   xmlns:rdf="http://www.w3.org/1999/02/22-rdf-syntax-ns#"
   xmlns:svg="http://www.w3.org/2000/svg"
   xmlns="http://www.w3.org/2000/svg"
   xmlns:sodipodi="http://sodipodi.sourceforge.net/DTD/sodipodi-0.dtd"
   xmlns:inkscape="http://www.inkscape.org/namespaces/inkscape"
   width="28.458338mm"
   height="31.252779mm"
   viewBox="0 0 28.458338 31.252779"
   version="1.1"
   id="svg8"
   inkscape:version="0.92.3 (2405546, 2018-03-11)"
   sodipodi:docname="deck.svg">
  <defs
     id="defs2">
    <clipPath
       clipPathUnits="userSpaceOnUse"
       id="clipPath982">
      <rect
         style="fill:#b2000f;fill-opacity:1;stroke:#000000;stroke-width:0.15273722;stroke-miterlimit:4;stroke-dasharray:none;stroke-opacity:1"
         id="rect984"
         width="24.286798"
         height="15.010068"
         x="-75.694191"
         y="105.28488"
         ry="2.0411"
         transform="rotate(-46.915386)" />
    </clipPath>
  </defs>
  <sodipodi:namedview
     id="base"
     pagecolor="#ffffff"
     bordercolor="#666666"
     borderopacity="1.0"
     inkscape:pageopacity="0.0"
     inkscape:pageshadow="2"
     inkscape:zoom="3.959798"
     inkscape:cx="119.03282"
     inkscape:cy="47.132784"
     inkscape:document-units="mm"
     inkscape:current-layer="layer1"
     showgrid="false"
     inkscape:snap-global="false"
     inkscape:window-width="1920"
     inkscape:window-height="1017"
     inkscape:window-x="-8"
     inkscape:window-y="-8"
     inkscape:window-maximized="1"
     fit-margin-top="1"
     fit-margin-left="1"
     fit-margin-right="1"
     fit-margin-bottom="1" />
  <metadata
     id="metadata5">
    <rdf:RDF>
      <cc:Work
         rdf:about="">
        <dc:format>image/svg+xml</dc:format>
        <dc:type
           rdf:resource="http://purl.org/dc/dcmitype/StillImage" />
        <dc:title />
      </cc:Work>
    </rdf:RDF>
  </metadata>
  <g
     inkscape:label="Layer 1"
     inkscape:groupmode="layer"
     id="layer1"
     transform="translate(-24.8376,-107.47039)">
    <rect
       style="fill:#b2000f;fill-opacity:0.94117647;stroke:#000000;stroke-width:0.15273722;stroke-miterlimit:4;stroke-dasharray:none;stroke-opacity:1"
       id="rect815"
       width="24.286798"
       height="15.010068"
       x="101.5777"
       y="56.893116"
       ry="2.0411"
       transform="rotate(43.084614)" />
    <rect
       transform="rotate(43.084614)"
       ry="2.0411"
       y="56.499588"
       x="101.20963"
       height="15.010068"
       width="24.286798"
       id="rect825"
       style="fill:#b2000f;fill-opacity:0.94117647;stroke:#000000;stroke-width:0.15273722;stroke-miterlimit:4;stroke-dasharray:none;stroke-opacity:1" />
    <rect
       style="fill:#b2000f;fill-opacity:0.94117647;stroke:#000000;stroke-width:0.15273722;stroke-miterlimit:4;stroke-dasharray:none;stroke-opacity:1"
       id="rect827"
       width="24.286798"
       height="15.010068"
       x="100.84158"
       y="56.106064"
       ry="2.0411"
       transform="rotate(43.084614)" />
    <rect
       transform="rotate(43.084614)"
       ry="2.0411"
       y="55.712536"
       x="100.47351"
       height="15.010068"
       width="24.286798"
       id="rect829"
       style="fill:#b2000f;fill-opacity:0.94117647;stroke:#000000;stroke-width:0.15273722;stroke-miterlimit:4;stroke-dasharray:none;stroke-opacity:1" />
    <rect
       style="fill:#b2000f;fill-opacity:0.94117647;stroke:#000000;stroke-width:0.15273722;stroke-miterlimit:4;stroke-dasharray:none;stroke-opacity:1"
       id="rect831"
       width="24.286798"
       height="15.010068"
       x="100.10545"
       y="55.319008"
       ry="2.0411"
       transform="rotate(43.084614)" />
    <rect
       transform="rotate(43.084614)"
       ry="2.0411"
       y="54.92548"
       x="99.737389"
       height="15.010068"
       width="24.286798"
       id="rect833"
       style="fill:#b2000f;fill-opacity:0.98994976;stroke:#000000;stroke-width:0.153;stroke-miterlimit:4;stroke-dasharray:none;stroke-opacity:1" />
    <g
       id="g940"
       style="stroke:#f9f9f9;stroke-width:0.60000002;stroke-miterlimit:4;stroke-dasharray:none;stroke-opacity:0.28140702"
       transform="translate(34.945491,0.93544335)" />
    <g
       id="g966"
       transform="rotate(90,39.73987,122.72912)"
       style="fill:#f9f9f9;fill-opacity:0.76381908;stroke:#f9f9f9;stroke-opacity:0.28140702"
       clip-path="url(#clipPath982)">
      <path
         id="path964"
         style="fill:#f9f9f9;fill-opacity:0.76381908;stroke:#f9f9f9;stroke-width:0.60000002;stroke-linecap:butt;stroke-linejoin:miter;stroke-miterlimit:4;stroke-dasharray:none;stroke-opacity:0.28140702"
         d="m 53.10135,108.52172 v 28.73147 m -2.55121,-28.73147 v 28.4642 M 47.998931,108.4549 v 28.59784 m -2.551209,-28.53102 v 28.73147 m -2.551208,-28.73147 v 28.4642 M 40.345305,108.4549 v 28.59784 m -2.551208,-28.53102 v 28.73147 m -2.551209,-28.73147 v 28.4642 M 32.691679,108.4549 v 28.59784 M 30.14047,108.52172 v 28.73147 m -2.551209,-28.73147 v 28.4642 M 25.038052,108.4549 v 28.59784 m 0.300692,-27.629 h 28.73147 m -28.73147,2.55121 h 28.4642 m -28.53102,2.55121 h 28.59784 m -28.53102,2.55121 h 28.73147 m -28.73147,2.55121 h 28.4642 m -28.53102,2.55121 h 28.59784 m -28.53102,2.5512 h 28.73147 m -28.73147,2.55121 h 28.4642 m -28.53102,2.55121 h 28.59784 m -28.53102,2.55121 h 28.73147 m -28.73147,2.55121 h 28.4642 m -28.53102,2.55121 h 28.59784"
         inkscape:connector-curvature="0" />
    </g>
    <path
       style="fill:none;stroke:#fcc227;stroke-width:0.23021615px;stroke-linecap:butt;stroke-linejoin:miter;stroke-opacity:1"
       d="m 37.962639,123.84204 3.226679,-3.57552 3.517371,3.19762 -3.19761,3.4883 z"
       id="path839"
       inkscape:connector-curvature="0" />
    <path
       style="fill:none;stroke:#fcc227;stroke-width:0.23021615px;stroke-linecap:butt;stroke-linejoin:miter;stroke-opacity:1"
       d="m 38.616695,123.71122 2.84878,2.57263 2.529019,-2.90692 -2.805176,-2.48541 z"
       id="path841"
       inkscape:connector-curvature="0" />
    <path
       style="fill:none;stroke:#fcc227;stroke-width:0.23021615px;stroke-linecap:butt;stroke-linejoin:miter;stroke-opacity:1"
       d="m 42.250343,124.55423 c -0.221119,-0.38658 0.0687,-1.31548 -0.148151,-1.92453 -0.330201,-0.9274 -1.171137,-1.32325 -1.552396,0.41293 -1.43094,0.16564 -1.064604,1.2718 -0.209562,1.49691 0.639811,0.16844 1.540734,-0.1859 1.910109,0.0147 z"
       id="path843"
       inkscape:connector-curvature="0"
       sodipodi:nodetypes="cscsc" />
    <path
       style="fill:#fcc227;fill-opacity:1;stroke:#fcc227;stroke-width:0.08701084;stroke-linecap:butt;stroke-linejoin:miter;stroke-miterlimit:4;stroke-dasharray:none;stroke-opacity:1"
       d="m 40.458276,120.9029 c -0.564424,-0.68432 -0.297617,-3.24446 -0.226105,-3.4738 l -0.894144,-0.0925 c -0.145693,-0.0401 -0.105768,-0.14565 -0.02055,-0.26722 l -0.483043,-0.3186 c 0.0078,-0.35392 0.184151,-0.50924 0.575541,-0.4111 l 0.955808,0.7297 c 0.17308,-0.43981 -0.373674,-0.85083 -0.863311,-1.26413 0.53167,-0.624 0.673204,0.13523 0.924976,0.50359 -0.159734,-0.68087 -0.103526,-1.42226 0.24666,-1.46968 0.768038,0.27415 0.343624,0.77086 0.102775,1.34636 0.441372,-0.25001 0.861362,-0.67962 1.366909,-0.39055 -0.07772,1.00646 -1.305856,0.17051 -1.582737,1.20247 0.396945,-0.15069 0.797851,-0.45189 1.181914,-0.11305 -0.111869,0.37572 -0.947114,0.23356 -1.264134,1.10997 -0.06001,0.58334 0.687857,-0.35861 1.109971,-0.185 0.226698,0.25814 -0.539707,0.5483 -1.120248,0.83248 -0.176079,0.48783 0.648831,-0.0253 1.007196,-0.072 -0.253642,0.31804 -0.403949,0.7698 -0.966087,0.6886 -0.221159,0.46052 0.118628,0.893 0.246661,1.33607 z"
       id="path845"
       inkscape:connector-curvature="0"
       sodipodi:nodetypes="ccccccccccccccccccccc" />
    <path
       sodipodi:nodetypes="ccccccccccccccccccccc"
       inkscape:connector-curvature="0"
       id="path847"
       d="m 38.445358,123.26672 c -0.684323,-0.56442 -3.24446,-0.29761 -3.473803,-0.22611 l -0.09249,-0.89414 c -0.04011,-0.14569 -0.145647,-0.10577 -0.267219,-0.0205 l -0.318599,-0.48304 c -0.353916,0.008 -0.509239,0.18415 -0.4111,0.57554 l 0.729699,0.9558 c -0.439813,0.17309 -0.850826,-0.37367 -1.264128,-0.86331 -0.623998,0.53167 0.135224,0.6732 0.503593,0.92498 -0.680878,-0.15974 -1.422262,-0.10353 -1.469683,0.24666 0.274145,0.76803 0.770855,0.34362 1.346353,0.10277 -0.250008,0.44138 -0.679615,0.86137 -0.390548,1.36691 1.006463,-0.0777 0.170515,-1.30585 1.202473,-1.58274 -0.150686,0.39695 -0.451891,0.79786 -0.113053,1.18192 0.375721,-0.11187 0.233563,-0.94712 1.109971,-1.26413 0.583338,-0.06 -0.358607,0.68785 -0.184994,1.10997 0.258135,0.2267 0.548299,-0.53971 0.832476,-1.12025 0.487826,-0.17608 -0.02532,0.64883 -0.07196,1.0072 0.318033,-0.25365 0.769794,-0.40395 0.688595,-0.96609 0.460522,-0.22116 0.893001,0.11863 1.336069,0.24666 z"
       style="fill:#fcc227;fill-opacity:1;stroke:#fcc227;stroke-width:0.08701084;stroke-linecap:butt;stroke-linejoin:miter;stroke-miterlimit:4;stroke-dasharray:none;stroke-opacity:1" />
    <path
       style="fill:none;stroke:#fcc227;stroke-width:0.23021615px;stroke-linecap:butt;stroke-linejoin:miter;stroke-opacity:1"
       d="m 38.602161,122.86822 -2.965056,-0.24709 0.494176,-0.31976 -0.857541,-0.61046 0.930214,0.0581 0.08721,-0.7994 -0.91568,0.31976 0.508711,-0.7122 0.479641,0.21803 0.436038,-0.36337 0.406968,0.42151 0.421504,-0.66859 -0.159881,-0.50871 -0.406968,-0.0291 -0.319761,0.33429 -0.610453,-0.0872 -0.116277,-0.26162 0.624988,0.0581 0.130811,-0.20348 -0.290692,-0.3343 0.88661,0.31976 0.508711,-0.40697 -0.305227,-0.43604 0.130812,-0.29068 0.595918,-0.2907 0.18895,0.20348 -0.08721,0.2907 -0.305227,0.26161 c 0,0 -0.116276,0.30524 0.02907,0.23256 0.145346,-0.0727 0.465106,-0.34883 0.465106,-0.34883 0,0 0.08721,-0.14534 0.07267,-0.23255 -0.01453,-0.0872 -0.0436,-0.40697 -0.0436,-0.40697 v -0.14534 l 0.334295,0.0581 0.07267,0.15988 0.203483,0.24709 0.261624,-0.29069 0.174415,0.0581 c 0,0 0.159879,0.13081 0.130811,0.24709 -0.02907,0.11627 -0.101743,0.24708 -0.101743,0.31976 0,0.0726 0.203485,1.61334 0.203485,1.61334 l 0.305226,0.50871 0.15988,0.17441 z"
       id="path849"
       inkscape:connector-curvature="0" />
    <path
       style="fill:none;stroke:#fcc227;stroke-width:0.2506654px;stroke-linecap:butt;stroke-linejoin:miter;stroke-opacity:1"
       d="m 36.918721,122.53294 2.722011,-3.56076 -0.237386,2.80114 z"
       id="path851"
       inkscape:connector-curvature="0" />
    <path
       style="fill:none;stroke:#fcc227;stroke-width:0.24387252px;stroke-linecap:butt;stroke-linejoin:miter;stroke-opacity:1"
       d="m 38.931897,122.37683 -1.616662,-1.66285 2.586659,0.64667 -1.601265,-2.37111 0.9546,3.09475 -2.956181,-0.60047 1.093171,-0.83142"
       id="path853"
       inkscape:connector-curvature="0" />
    <rect
       style="fill:none;fill-opacity:0.98994976;stroke:#000000;stroke-width:0.153;stroke-miterlimit:4;stroke-dasharray:none;stroke-opacity:1"
       id="rect986"
       width="24.286798"
       height="15.010068"
       x="99.737389"
       y="54.92548"
       ry="2.0411"
       transform="rotate(43.084614)" />
  </g>
</svg>
